# xmcd
#
# Track frame offsets:
#	150
#	26570
#	38775
#	51298
#	68470
#	75554
#	90735
#	106500
#	123801
#	142716
#	157622
#	174672
#
# Disc length: 2888 seconds
#
# Revision: 0
# Processed by: cddbd v1.5.1PL0 Copyright (c) Steve Scherf et al.
# Submitted via: EasyCDDAExtractor 8.1.0.1
#
DISCID=7e0b460c
DTITLE=Deb Stallard and Patrick Drew
DYEAR=2005
DGENRE=Blues
TTITLE0=Past Regrets
TTITLE1=Risky Business
TTITLE2=Dreamin' You Were Mine
TTITLE3=Life's A Beach
TTITLE4=Sailin' Man
TTITLE5=Bye Bye Lies
TTITLE6=Cruisin'
TTITLE7=Stolen Moment
TTITLE8=Maintenance Man
TTITLE9=Wounded Heart
TTITLE10=Warren's Walk
TTITLE11=PBJ
EXTD=
EXTT0=
EXTT1=
EXTT2=
EXTT3=
EXTT4=
EXTT5=
EXTT6=
EXTT7=
EXTT8=
EXTT9=
EXTT10=
EXTT11=
PLAYORDER=
